<svg width="1024" height="1024" viewBox="0 0 1024 1024" fill="none" xmlns="http://www.w3.org/2000/svg">
<path d="M527.3 698.3C523.5 700 520.9 703.8 520.8 708C520.5 713.3 524.9 718.2 530.1 718.6C536.1 719.3 542 714 541.8 707.9C541.9 701 533.7 695.5 527.3 698.3Z" fill="#DBF3F3"/>
<path d="M750.8 456.3C750.6 456.5 750.1 456.8 749.8 456.9C749.8 461.1 748.2 465.1 747 469.1C743 481.9 735.6 493.4 726.8 503.5C707.6 523.5 681.4 536.7 653.9 540.6C639.8 543.1 625.3 543.3 611 542.3C601 541.8 591.1 539.7 581 539.9C579.1 539.9 577.2 539.6 575.4 539.2C592.6 537.3 609.4 531.7 624 522.3C640.5 511.8 654.1 496.9 663.5 479.8C674.9 457.4 678.6 431.1 673.4 406.6C671.7 398 668.3 389.9 665.3 381.6C665.1 381.5 664.8 381.4 664.6 381.3C654.3 358.3 635.7 339.8 614.2 327L614.5 327.1C624.7 330.5 634.2 335.5 643.9 340.2C662.7 349.9 681.2 360.1 697.9 373.2C708.3 381.2 718.6 389.7 726.5 400.2C736.2 412.7 745.3 426.1 750 441.4C751.8 446 751.4 451.2 750.8 456.3Z" fill="url(#paint0_linear_21_524)"/>
<path d="M587 432C585.6 448 572.4 461.8 556.8 465C553.9 465.5 551 465.8 548.1 465.8C521.1 465.7 494.1 466 467.1 466C463.7 465.9 460.3 466.4 456.9 465.9C433 466.6 409.1 467.8 385.2 467.8C384.9 492.9 385.4 518 384.9 543C384.6 557.7 385.9 572.5 384.1 587.1C381.9 599 373.6 609.4 363 615C347.6 623.3 326.9 619.9 315.2 606.8C308.7 599.4 304.4 589.9 304 579.9C303.6 569.5 303.9 559.1 304.1 548.7L304.5 549C305.1 527.3 309.2 505.8 314.9 485C320.6 463.9 330.9 443.9 346.2 428.2C357.3 417.2 370.4 408.2 384.6 401.6C397.3 396 410.8 392.4 424.6 390.9C442.9 389.2 461.4 389.7 479.7 389.9C493.4 389.4 507.2 389.9 521 389.7C532 390 543 389.2 553.9 390.3C560.1 390.7 565.9 393.8 571 397.2C582.3 404.6 588.5 418.6 587 432Z" fill="url(#paint1_radial_21_524)"/>
<path d="M431.7 236.4C456.1 236.1 480.6 236.4 505 236.3C528.6 236.4 552.3 236.1 575.9 236.7C592.5 238 609.2 240.4 625.1 245.9C635.5 249.8 645.9 254 655.7 259.4C686.2 276.8 712 302.4 728.8 333.3C736.2 346.4 741.4 360.7 745.6 375.2C751.3 397 753 419.7 751.9 442.2C751.1 449.4 751.7 456.6 751.2 463.8H750.4C750.3 461.3 750.5 458.9 750.7 456.4C751.3 451.4 751.7 446.1 750 441.2C745.3 426 736.2 412.5 726.5 400C718.6 389.4 708.3 381 697.9 373C681.2 360 662.7 349.7 643.9 340C634.2 335.4 624.7 330.3 614.5 326.9C611 325.2 607.6 323.2 603.9 321.8C589.7 315 575.3 308.5 561.5 300.8C553.8 296.1 545.7 292.2 537.8 287.8C512.8 274.2 488.5 259.5 463.2 246.6C453.4 241.6 442.6 238.7 431.7 236.4Z" fill="#26B7BB"/>
<path d="M604.1 321.8C599.7 320.1 594.9 319.5 590.3 318.8C571.6 318.3 552.8 318.8 534.1 318.7C502.8 318.7 471.4 318.6 440.1 318.8C433.1 318.9 426 318.3 419 319.8C405.8 322.3 394.4 331.6 388.8 343.7C385.8 351.1 384.8 359.1 384.9 367C384.8 378.5 384.9 390 384.7 401.5C370.5 408.1 357.4 417 346.3 428.1C331.1 443.8 320.7 463.9 315 484.9C309.3 505.8 305.2 527.3 304.6 548.9L304.2 548.6C304.6 483.4 304.2 418.1 304.4 352.9C304.6 331 309.6 308.7 321 289.8C325.2 283.3 329.5 276.7 335.2 271.4C335.3 271.3 335.5 271 335.6 270.9L336.1 269.3L336.7 269.7C343.5 262.2 351.7 256.1 360.5 251.2C381.9 238.5 407.3 234.7 431.8 236.2C442.7 238.5 453.5 241.4 463.4 246.4C488.7 259.3 513.1 274 538 287.6C545.9 292 554 295.9 561.7 300.6C575.5 308.5 589.8 315.1 604.1 321.8Z" fill="url(#paint2_linear_21_524)"/>
<path d="M750.5 463.6C750.6 465.7 750.5 467.9 750.2 470C747.7 486.1 742.8 501.9 735.7 516.5C718.8 551.6 689.2 579.8 654.8 597.7C630.1 610.3 602.9 618.6 575.1 619.7C543.1 619.7 511.1 619.7 479 619.8C462.8 619.3 447.2 608.4 442.1 592.9C435.4 575.4 443.4 553.8 459.7 544.7C465.8 541.1 472.9 539.2 480 539.2C511.8 539.1 543.7 539.2 575.5 539.1C577.3 539.5 579.2 539.8 581.1 539.8C591.2 539.6 601.1 541.7 611.1 542.2C625.4 543.2 639.8 543 654 540.5C681.5 536.7 707.7 523.5 726.9 503.4C735.6 493.3 743 481.8 747.1 469C748.3 465 749.9 461.1 749.9 456.8C750.1 456.6 750.6 456.3 750.9 456.2C750.6 458.7 750.4 461.2 750.5 463.6Z" fill="url(#paint3_linear_21_524)"/>
<path d="M193.9 695.1C196.4 695.1 198.9 695.1 201.4 695C201.2 708.7 201.7 722.4 201.2 736.1C204.7 731.9 208.9 728 214.3 726.3C224.7 722.4 237.7 725.9 243.7 735.4C247 739.9 248 745.6 248 751C248 763.2 248.1 775.5 247.8 787.7C245.2 787.7 242.7 787.6 240.1 787.7C240.2 775.8 240.1 763.9 240.1 752C240 746.5 238.3 740.5 233.9 736.9C228 732.1 219.3 731.3 212.5 734.6C205.5 737.7 201.2 745.5 201.4 753C201.5 764.6 201.3 776.3 201.3 787.9C198.7 787.8 196.2 787.8 193.6 787.9C194 757 193.8 726 193.9 695.1Z" fill="#08394A"/>
<path d="M527.3 698.3C533.7 695.5 541.9 700.9 541.9 707.9C542 713.9 536.1 719.2 530.2 718.6C524.9 718.2 520.5 713.3 520.9 708C520.9 703.9 523.5 700 527.3 698.3Z" fill="#08394A"/>
<path d="M749.2 701.3C751.2 701.2 753.3 701 755.4 700.9C755.3 729.9 755.1 758.8 755.2 787.7C753.2 787.7 751.3 787.6 749.3 787.5C749.2 783 749.3 778.6 749.2 774.2C745.8 779.1 741.3 783.4 735.8 785.7C726.3 789.9 714.7 788.6 706 783C700.5 779.1 695.8 773.8 693.7 767.3C690.2 757 692.2 744.7 699.6 736.5C707.5 727.6 720.6 723.5 732.1 727.1C739.2 729.3 745.6 734.1 749 740.7C749.2 727.6 749.2 714.4 749.2 701.3ZM718.2 732.3C712.9 733.4 707.9 736.4 704.5 740.6C697.5 749.3 697 762.4 703.3 771.6C709.1 780.7 721.4 784.7 731.6 781.3C743.9 777.7 752.1 763.5 748.6 751.1C745.5 738 731.2 729 718.2 732.3Z" fill="#08394A"/>
<path d="M332.8 702.7C352.1 702.6 371.5 702.8 390.8 702.7C391.2 707.8 390.9 713 391.2 718.2C377.4 718.1 363.6 718.1 349.7 718.2C349.8 725 349.7 731.7 349.8 738.5C361.8 738.5 373.7 738.3 385.7 738.5C385.7 743.5 385.7 748.5 385.8 753.5C373.8 753.8 361.8 753.3 349.8 753.7C350 765.1 350 776.5 350 788C344.4 788 338.8 788 333.1 788C332.6 759.5 333 731.1 332.8 702.7Z" fill="#08394A"/>
<path d="M147.8 704.1C150.2 704.2 152.6 704.2 155.1 704.1C155.3 711.5 155.2 719 154.9 726.4C162.5 726.3 170 726.3 177.6 726.3C177.7 728.6 177.7 730.9 177.4 733.2C170 733.1 162.6 733.4 155.1 733.2C155.2 744.7 155 756.3 155.1 767.9C155 772.1 156.2 776.7 159.9 779C165.5 782.3 172.3 780.8 178.2 779.2C178.1 781.6 178.1 783.9 178.3 786.3C172.9 788.5 166.7 788.8 161 787.7C152.9 786 147.6 777.9 147.6 769.9C147.5 757.7 147.5 745.4 147.6 733.2C142.9 733.1 138.2 733.2 133.5 733.1C133.5 730.8 133.4 728.6 133.4 726.3C138.1 726.5 142.9 726.5 147.6 726.4C147.7 719 147.7 711.6 147.8 704.1Z" fill="#08394A"/>
<path d="M477.6 725.6C489.6 720.5 505.6 723.8 513 735C509.2 738.1 505.4 741 501.5 744C498.1 738.3 490.7 734.8 484.3 737.4C480.3 738.8 480.5 745.2 484.4 746.6C492.6 750.4 502.5 750.1 509.7 756.1C517.4 762.4 516.6 775.2 510 782C504 788.6 494.5 790.2 486 789.6C476.2 789.2 466.8 783.4 462.1 774.9C466.2 772.4 470 769.7 474.1 767.3C476.8 771.1 480.1 775.1 485 776C489 776.8 493.9 777 497 774C499.6 771.6 499.1 766.7 495.7 765.3C488.6 761.5 479.9 761.6 473 757.3C468.6 754.4 465.2 749.5 465.1 744.1C464.4 735.9 470.3 728.5 477.6 725.6Z" fill="#08394A"/>
<path d="M576.5 723.7C591.4 721.6 607.1 730.9 612.3 745C616 754.4 615.1 765.5 609.8 774.1C604.7 782 596.4 788 587 789.3C576.3 791.1 564.7 787.7 557.1 779.9C545.2 768.4 544.4 747.2 555.9 735C561.1 728.8 568.5 724.8 576.5 723.7ZM576.4 738.5C568.3 740.5 562.9 748.7 563.5 756.9C563.5 767.1 573.7 776.2 583.9 774.3C592.6 773.1 599 764.6 598.6 755.9C598.9 744.9 587.3 735.2 576.4 738.5Z" fill="#08394A"/>
<path d="M637.8 732.8C646.3 721.6 664.7 720.2 674.6 730.3C681.5 736.8 682.5 747 682.2 755.9C682.2 766.6 682 777.3 682.2 788.1C676.9 788 671.5 788.1 666.2 788C666.3 776.3 666.2 764.6 666.3 752.9C666.3 749.7 666 746.4 664.2 743.7C659.1 735.2 644.1 735.9 640.2 745.1C638.7 748.1 638.5 751.6 638.6 754.9C638.6 765.9 638.6 776.8 638.7 787.8C633.2 787.9 627.7 787.8 622.2 787.9C622.1 767 622.1 746 622.3 725.1C627.5 725.2 632.8 725 638 725.1C638 727.7 637.9 730.3 637.8 732.8Z" fill="#08394A"/>
<path d="M269.7 734.7C279.4 723.5 297.7 721.3 309.6 730.4C318.6 736.4 322.8 747.6 322 758.2C304.6 758.6 287.1 758.1 269.7 758.6C270.2 766.9 274.6 775.3 282.4 778.8C292.3 783.9 305.8 781 312.2 771.7C314.4 772.9 316.4 774.3 318.3 775.9C308.7 790.1 286.9 793.1 273.6 782.4C258.9 771.5 258.1 748 269.7 734.7ZM279.5 736.3C274.2 739.8 270.8 745.8 270.1 752.1C284.6 751.9 299.2 751.7 313.7 752C313.3 744.7 308.7 738 302.2 734.8C295.1 731.1 286 731.9 279.5 736.3Z" fill="#08394A"/>
<path d="M395.7 725.2C401.2 725.2 406.7 724.8 412.3 725.1C412.2 736.7 412.2 748.4 412.1 760C412 763.9 413 768.1 416 770.9C421.8 776 432.4 775.3 436.6 768.5C439.1 764.5 438.8 759.5 438.9 755C438.9 745 439.1 735.1 438.8 725.1C444.4 725.1 449.9 725.1 455.5 725.1C455.6 746.1 455.5 767.1 455.6 788.1C450.2 788.1 444.7 788.1 439.3 788.1C439.4 785.4 439.5 782.8 439.5 780.1C436.9 782.9 434.5 786.3 430.7 787.6C422.1 791 411.4 790.1 404.3 783.9C398.8 779.2 396.2 772 395.9 765C395.6 751.7 395.9 738.5 395.7 725.2Z" fill="#08394A"/>
<path d="M522.9 725.4C528.4 725.3 533.9 725.5 539.4 725.4C539.7 746.2 539.4 767 539.6 787.8C534.2 787.9 528.7 787.9 523.2 787.8C523.2 767.1 523.6 746.2 522.9 725.4Z" fill="#08394A"/>
<path d="M780.3 733.3C789.1 725.3 802.7 723.4 813.3 728.7C821.4 732.9 827.8 740.9 829.2 750C829.7 752.5 829.8 755 829.9 757.5C812 758 794 757.3 776.2 757.9C777.2 766.3 781.1 775 788.8 779.2C799.6 785.8 814.8 782.1 822 771.8C823.5 772.8 825 773.9 826.5 774.9C817.3 789.4 795.3 792.3 782.1 781.8C775.6 776.4 771.1 768.5 770.4 760C769.4 750.3 772.9 739.9 780.3 733.3ZM776.4 753C792 753.3 807.6 752.8 823.2 753.2C823.5 739.5 809.1 729.1 796.1 731.8C785.5 733.3 777.9 742.8 776.4 753Z" fill="#08394A"/>
<path d="M832.8 726.8C834.9 726.8 837 726.8 839.1 726.8C844.8 739.6 849.7 752.9 855.2 765.8C857 770.5 859.4 775 860.8 779.9C862 778.9 862.1 777.2 862.8 775.9C867.4 764.7 872.3 753.7 876.7 742.4C878.9 737.1 880.8 731.7 883.5 726.7C885.5 726.8 887.6 726.9 889.6 726.9C881.4 747.2 872.4 767.3 863.7 787.5C861.9 787.5 860.1 787.5 858.2 787.5C849.4 767.5 840.9 747.2 832.8 726.8Z" fill="#08394A"/>
<defs>
<linearGradient id="paint0_linear_21_524" x1="663" y1="349.5" x2="663.353" y2="542.862" gradientUnits="userSpaceOnUse">
<stop stop-color="#045D6F"/>
<stop offset="1" stop-color="#022339"/>
</linearGradient>
<radialGradient id="paint1_radial_21_524" cx="0" cy="0" r="1" gradientUnits="userSpaceOnUse" gradientTransform="translate(365 427.5) rotate(52.8727) scale(178.102 219.62)">
<stop stop-color="#04283D"/>
<stop offset="1" stop-color="#13A7BA"/>
</radialGradient>
<linearGradient id="paint2_linear_21_524" x1="490" y1="265.5" x2="325" y2="436" gradientUnits="userSpaceOnUse">
<stop stop-color="#066072"/>
<stop offset="1" stop-color="#31C1C2"/>
</linearGradient>
<linearGradient id="paint3_linear_21_524" x1="731.5" y1="498" x2="450" y2="620" gradientUnits="userSpaceOnUse">
<stop stop-color="#1990B0"/>
<stop offset="1" stop-color="#324788"/>
</linearGradient>
</defs>
</svg>
